<?xml version="1.0" encoding="UTF-8" standalone="no"?>
<svg
   viewBox="0 0 74 66"
   width="74"
   height="66"
   version="1.1"
   id="svg4"
   sodipodi:docname="warning_triangle.svg"
   inkscape:version="1.4.3 (0d15f75042, 2025-12-25)"
   inkscape:export-filename="warning_triangle.pdf"
   inkscape:export-xdpi="96"
   inkscape:export-ydpi="96"
   xmlns:inkscape="http://www.inkscape.org/namespaces/inkscape"
   xmlns:sodipodi="http://sodipodi.sourceforge.net/DTD/sodipodi-0.dtd"
   xmlns="http://www.w3.org/2000/svg"
   xmlns:svg="http://www.w3.org/2000/svg">
  <defs
     id="defs4" />
  <sodipodi:namedview
     id="namedview4"
     pagecolor="#ffffff"
     bordercolor="#000000"
     borderopacity="0.25"
     inkscape:showpageshadow="2"
     inkscape:pageopacity="0.0"
     inkscape:pagecheckerboard="0"
     inkscape:deskcolor="#d1d1d1"
     inkscape:zoom="6.03"
     inkscape:cx="50.082919"
     inkscape:cy="50"
     inkscape:window-width="1463"
     inkscape:window-height="846"
     inkscape:window-x="0"
     inkscape:window-y="0"
     inkscape:window-maximized="1"
     inkscape:current-layer="svg4" />
  <!-- Outer black border triangle -->
  <path
     fill="#000000"
     d="M 34.575,2.7920398 1.3199999,60.392039 a 2.8,2.8 0 0 0 2.425,4.2 H 70.255 a 2.8,2.8 0 0 0 2.425,-4.2 L 39.425,2.7920398 a 2.8,2.8 0 0 0 -4.85,0 z"
     id="path1" />
  <!-- White gap ring -->
  <path
     fill="#ffffff"
     d="M 34.748,4.4920398 2.8789999,59.692039 a 2.6,2.6 0 0 0 2.251,3.9 H 68.87 a 2.6,2.6 0 0 0 2.251,-3.9 L 39.252,4.4920398 a 2.6,2.6 0 0 0 -4.504,0 z"
     id="path2" />
  <!-- Black fill triangle -->
  <path
     fill="#000000"
     d="M 34.922,10.19204 7.9019999,56.992039 a 2.4,2.4 0 0 0 2.078,3.6 H 64.02 a 2.4,2.4 0 0 0 2.078,-3.6 L 39.078,10.19204 a 2.4,2.4 0 0 0 -4.156,0 z"
     id="path3" />
  <!-- Exclamation body: flat top, tapered, rounded bottom -->
  <path
     fill="#ffffff"
     d="m 33.571,23.672039 v 4.356 l 2.014,17.424 a 1.415,1.415 0 0 0 2.83,0 l 2.014,-17.424 v -4.356 z"
     id="path4" />
  <!-- Exclamation dot -->
  <circle
     cx="37"
     cy="50.067039"
     r="1.415"
     fill="#ffffff"
     id="circle4" />
</svg>
